<?xml version="1.0" standalone="no"?>
<!DOCTYPE svg PUBLIC "-//W3C//DTD SVG 20010904//EN"
 "http://www.w3.org/TR/2001/REC-SVG-20010904/DTD/svg10.dtd">

<svg version="1.0" xmlns="http://www.w3.org/2000/svg"
 width="32.000000pt" height="32.000000pt" viewBox="0 0 32.000000 32.000000"
 preserveAspectRatio="xMidYMid meet">
<g transform="translate(0.000000,32.000000) scale(0.100000,-0.100000)"
fill="#000000" stroke="none">
<path d="M0 160 l0 -160 160 0 160 0 0 160 0 160 -160 0 -160 0 0 -160z m198
88 c17 -17 15 -58 -2 -58 -7 0 -16 9 -19 21 -6 24 -30 21 -35 -4 -2 -9 9 -22
27 -32 43 -22 55 -48 39 -83 -15 -30 -67 -43 -85 -20 -19 22 -19 52 -1 56 11
2 18 -4 20 -20 4 -29 32 -30 36 -2 2 16 -7 27 -32 42 -30 18 -36 27 -36 55 0
40 15 57 50 57 14 0 31 -5 38 -12z"/>
</g>
</svg>
